<?xml version="1.0" encoding="UTF-8"?>
<svg width="24" height="24" viewBox="0 0 24 24" xmlns="http://www.w3.org/2000/svg">
  <path fill="#ffffff" d="M12 15.5c1.9 0 3.5-1.6 3.5-3.5S13.9 8.5 12 8.5 8.5 10.1 8.5 12s1.6 3.5 3.5 3.5zm0-5c.8 0 1.5.7 1.5 1.5s-.7 1.5-1.5 1.5-1.5-.7-1.5-1.5.7-1.5 1.5-1.5z"/>
  <path fill="#ffffff" d="M19.4 13c0-.3.1-.6.1-1s0-.7-.1-1l2.1-1.7c.2-.2.3-.4.1-.6l-2-3.5c-.1-.2-.4-.3-.6-.1l-2.5 1c-.5-.4-1.1-.7-1.6-1l-.4-2.7c0-.2-.2-.4-.5-.4h-4c-.3 0-.5.2-.5.4l-.4 2.7c-.6.2-1.1.6-1.6 1l-2.5-1c-.3-.1-.5 0-.7.1l-2 3.5c-.1.2-.1.5.1.6l2.1 1.7c0 .3-.1.6-.1 1s0 .7.1 1l-2.1 1.7c-.2.2-.3.4-.1.6l2 3.5c.1.2.4.3.6.1l2.5-1c.5.4 1.1.7 1.6 1l.4 2.7c0 .2.2.4.5.4h4c.3 0 .5-.2.5-.4l.4-2.7c.6-.2 1.1-.6 1.6-1l2.5 1c.3.1.5 0 .7-.1l2-3.5c.1-.2.1-.5-.1-.6l-2.1-1.7zM12 16.5c-2.5 0-4.5-2-4.5-4.5s2-4.5 4.5-4.5 4.5 2 4.5 4.5-2 4.5-4.5 4.5z"/>
</svg> 