<?xml version="1.0" encoding="UTF-8"?>
<svg width="24" height="24" viewBox="0 0 24 24" fill="none" xmlns="http://www.w3.org/2000/svg">
  <path d="M3 6C3 4.34315 4.34315 3 6 3H18C19.6569 3 21 4.34315 21 6V18C21 19.6569 19.6569 21 18 21H6C4.34315 21 3 19.6569 3 18V6Z" stroke="#f39c12" stroke-width="1.5"/>
  <path d="M3 8H21" stroke="#f39c12" stroke-width="1.5"/>
  <path d="M3 16H21" stroke="#f39c12" stroke-width="1.5"/>
  <path d="M8 12C8 11.4477 8.44772 11 9 11H15C15.5523 11 16 11.4477 16 12C16 12.5523 15.5523 13 15 13H9C8.44772 13 8 12.5523 8 12Z" stroke="#f39c12" stroke-width="1.5"/>
  <circle cx="17" cy="6" r="1" fill="#f39c12"/>
</svg> 