<?xml version="1.0" encoding="UTF-8"?>
<svg width="24" height="24" viewBox="0 0 24 24" fill="none" xmlns="http://www.w3.org/2000/svg">
  <path d="M12 15C13.6569 15 15 13.6569 15 12C15 10.3431 13.6569 9 12 9C10.3431 9 9 10.3431 9 12C9 13.6569 10.3431 15 12 15Z" stroke="#27ae60" stroke-width="1.5"/>
  <path d="M13.7654 5.05029L14.9154 3.90029C15.3059 3.50977 15.9391 3.50977 16.3296 3.90029L20.0996 7.67029C20.4901 8.06081 20.4901 8.69397 20.0996 9.08449L18.9496 10.2345C18.6873 10.4967 18.6873 10.9216 18.9496 11.1839C19.2118 11.4461 19.6367 11.4461 19.8989 11.1839L21.0489 10.0339C22.0205 9.06231 22.0205 7.49247 21.0489 6.52089L17.2789 2.75089C16.3073 1.77931 14.7375 1.77931 13.7659 2.75089L12.6159 3.90089C12.3537 4.16313 12.3537 4.58805 12.6159 4.85029C12.8782 5.11253 13.3031 5.11253 13.7654 5.05029Z" stroke="#27ae60" stroke-width="1.5"/>
  <path d="M3.90039 13.7656L5.05039 14.9156C5.44091 15.3061 5.44091 15.9393 5.05039 16.3298L7.67039 20.0998C8.06091 20.4903 8.69407 20.4903 9.08459 20.0998L10.2346 18.9498C10.4968 18.6876 10.9218 18.6876 11.184 18.9498C11.4463 19.212 11.4463 19.637 11.184 19.8992L10.034 21.0492C9.06242 22.0208 7.49259 22.0208 6.52101 21.0492L2.75101 17.2792C1.77943 16.3076 1.77943 14.7378 2.75101 13.7662L3.90101 12.6162C4.16325 12.354 4.58816 12.354 4.85041 12.6162C5.11265 12.8784 5.11265 13.3034 3.90039 13.7656Z" stroke="#27ae60" stroke-width="1.5"/>
  <path d="M19.8995 12.6162L18.7495 13.7662C18.359 14.1567 17.7258 14.1567 17.3353 13.7662L13.5653 10.0962C13.1748 9.70565 13.1748 9.07249 13.5653 8.68197L14.7153 7.53197C14.9776 7.26973 14.9776 6.84481 14.7153 6.58257C14.4531 6.32033 14.0282 6.32033 13.7659 6.58257L12.6159 7.73257C11.6444 8.70415 11.6444 10.274 12.6159 11.2456L16.3859 15.0156C17.3575 15.9871 18.9273 15.9871 19.8989 15.0156L21.0489 13.8656C21.3112 13.6033 21.3112 13.1784 21.0489 12.9162C20.7867 12.6539 20.3618 12.6539 19.8995 12.6162Z" stroke="#27ae60" stroke-width="1.5"/>
  <path d="M10.2347 5.05012L11.3847 3.90012C11.7752 3.5096 12.4084 3.5096 12.7989 3.90012L16.5689 7.67012C16.9594 8.06064 16.9594 8.6938 16.5689 9.08432L15.4189 10.2343C15.1567 10.4966 15.1567 10.9215 15.4189 11.1837C15.6811 11.446 16.1061 11.446 16.3683 11.1837L17.5183 10.0337C18.4899 9.06215 18.4899 7.49232 17.5183 6.52074L13.7483 2.75074C12.7767 1.77916 11.2069 1.77916 10.2353 2.75074L9.08532 3.90074C8.82307 4.16298 8.82307 4.5879 9.08532 4.85014C9.34756 5.11238 9.77247 5.11238 10.2347 5.05012Z" stroke="#27ae60" stroke-width="1.5"/>
</svg> 