<?xml version="1.0" encoding="UTF-8"?>
<svg width="24" height="24" viewBox="0 0 24 24" fill="none" xmlns="http://www.w3.org/2000/svg">
  <path d="M19 5H5C4.44772 5 4 5.44772 4 6V8C4 8.55228 4.44772 9 5 9H19C19.5523 9 20 8.55228 20 8V6C20 5.44772 19.5523 5 19 5Z" stroke="#9b59b6" stroke-width="1.5"/>
  <path d="M19 10H5C4.44772 10 4 10.4477 4 11V13C4 13.5523 4.44772 14 5 14H19C19.5523 14 20 13.5523 20 13V11C20 10.4477 19.5523 10 19 10Z" stroke="#9b59b6" stroke-width="1.5"/>
  <path d="M19 15H5C4.44772 15 4 15.4477 4 16V18C4 18.5523 4.44772 19 5 19H19C19.5523 19 20 18.5523 20 18V16C20 15.4477 19.5523 15 19 15Z" stroke="#9b59b6" stroke-width="1.5"/>
  <path d="M8 7H13" stroke="#9b59b6" stroke-width="1.5" stroke-linecap="round"/>
  <path d="M8 12H16" stroke="#9b59b6" stroke-width="1.5" stroke-linecap="round"/>
  <path d="M8 17H11" stroke="#9b59b6" stroke-width="1.5" stroke-linecap="round"/>
</svg> 