<?xml version="1.0" encoding="UTF-8"?>
<svg width="24" height="24" viewBox="0 0 24 24" fill="none" xmlns="http://www.w3.org/2000/svg">
  <path d="M12 15C13.6569 15 15 13.6569 15 12C15 10.3431 13.6569 9 12 9C10.3431 9 9 10.3431 9 12C9 13.6569 10.3431 15 12 15Z" stroke="#7f8c8d" stroke-width="1.5"/>
  <path d="M19.4 15C19.1277 15.8031 19.7639 16.7248 20.5845 16.9285C21.4052 17.1322 21.7834 18.108 21.3402 18.8369C20.8971 19.5659 20.1095 20 19.2792 20H18.9208C18.0905 20 17.3029 19.5659 16.8598 18.8369C16.4166 18.108 16.7948 17.1322 17.6155 16.9285C18.4361 16.7248 19.0723 15.8031 18.8 15C18.5277 14.1969 17.6065 13.7397 16.8 14.1C15.9935 14.4603 15.0306 14.1056 14.6 13.3666C14.1694 12.6277 14.3373 11.6751 15 11.1C15.6627 10.5249 15.6627 9.47507 15 8.9C14.3373 8.32493 14.1694 7.3723 14.6 6.63338C15.0306 5.89446 15.9935 5.53975 16.8 5.9C17.6065 6.26025 18.5277 5.8031 18.8 5C19.0723 4.1969 18.4361 3.27516 17.6155 3.07153C16.7948 2.86791 16.4166 1.89201 16.8598 1.16307C17.3029 0.434123 18.0905 0 18.9208 0H19.2792C20.1095 0 20.8971 0.434123 21.3402 1.16307C21.7834 1.89201 21.4052 2.86791 20.5845 3.07153C19.7639 3.27516 19.0723 4.1969 19.4 5C19.7277 5.8031 20.6489 6.26025 21.4555 5.9C22.262 5.53975 23.2248 5.89446 23.6555 6.63338C24.0861 7.3723 23.9181 8.32493 23.2555 8.9C22.5928 9.47507 22.5928 10.5249 23.2555 11.1C23.9181 11.6751 24.0861 12.6277 23.6555 13.3666C23.2248 14.1056 22.262 14.4603 21.4555 14.1C20.6489 13.7397 19.7277 14.1969 19.4 15Z" stroke="#7f8c8d" stroke-width="1.5"/>
  <path d="M2 9C2 7.89543 2.89543 7 4 7H20C21.1046 7 22 7.89543 22 9V19C22 20.1046 21.1046 21 20 21H4C2.89543 21 2 20.1046 2 19V9Z" stroke="#7f8c8d" stroke-width="1.5"/>
  <path d="M2 12H22" stroke="#7f8c8d" stroke-width="1.5"/>
</svg> 