<?xml version="1.0" encoding="UTF-8"?>
<svg width="24" height="24" viewBox="0 0 24 24" fill="none" xmlns="http://www.w3.org/2000/svg">
  <path d="M12 4V14M12 14C10.8954 14 10 14.8954 10 16C10 17.1046 10.8954 18 12 18C13.1046 18 14 17.1046 14 16C14 14.8954 13.1046 14 12 14Z" stroke="#10893E" stroke-width="1.5" stroke-linecap="round"/>
  <path d="M12 4C11.4477 4 11 4.44772 11 5V14.1716C10.4022 14.5825 10 15.2397 10 16C10 17.1046 10.8954 18 12 18C13.1046 18 14 17.1046 14 16C14 15.2397 13.5978 14.5825 13 14.1716V5C13 4.44772 12.5523 4 12 4Z" stroke="#10893E" stroke-width="1.5"/>
  <rect x="10" y="6" width="4" height="6" rx="1" fill="#10893E"/>
  <path d="M7 14.5001C6.17157 12.9046 6.17157 10.0956 7 8.50006M17 14.5001C17.8284 12.9046 17.8284 10.0956 17 8.50006" stroke="#10893E" stroke-width="1.5" stroke-linecap="round"/>
</svg> 